<mxfile host="app.diagrams.net" modified="2024-04-15T10:45:28.814Z" agent="Mozilla/5.0 (Windows NT 10.0; Win64; x64) AppleWebKit/537.36 (KHTML, like Gecko) Chrome/123.0.0.0 Safari/537.36" etag="vS51Bam_p-W-NQCFUwm3" version="24.2.2" type="device">
  <diagram name="Sida-1" id="rRQg_6flptE9xCNdGF-S">
    <mxGraphModel dx="1764" dy="2085" grid="1" gridSize="10" guides="1" tooltips="1" connect="1" arrows="1" fold="1" page="1" pageScale="1" pageWidth="827" pageHeight="1169" math="0" shadow="0">
      <root>
        <mxCell id="0" />
        <mxCell id="1" parent="0" />
        <mxCell id="OqCfDwqVX9urTB39xYmR-1" value="Actor" style="shape=umlActor;verticalLabelPosition=bottom;verticalAlign=top;html=1;outlineConnect=0;labelBackgroundColor=none;gradientColor=none;gradientDirection=west;strokeWidth=3;" parent="1" vertex="1">
          <mxGeometry x="480" y="202" width="40" height="80" as="geometry" />
        </mxCell>
        <mxCell id="OqCfDwqVX9urTB39xYmR-2" value="Actor" style="shape=umlActor;verticalLabelPosition=bottom;verticalAlign=top;html=1;outlineConnect=0;labelBackgroundColor=none;strokeWidth=3;" parent="1" vertex="1">
          <mxGeometry x="240" y="70" width="40" height="210" as="geometry" />
        </mxCell>
        <mxCell id="OqCfDwqVX9urTB39xYmR-3" value="&amp;nbsp; &amp;nbsp; charlie" style="html=1;shadow=0;dashed=0;align=left;verticalAlign=middle;shape=mxgraph.arrows2.arrow;dy=0.6;dx=40;notch=0;labelBackgroundColor=none;fillColor=#3399FF;fontColor=#ffffff;strokeColor=#000000;strokeWidth=3;" parent="1" vertex="1">
          <mxGeometry x="120" y="132" width="122.32" height="70" as="geometry" />
        </mxCell>
        <mxCell id="OqCfDwqVX9urTB39xYmR-6" value="KIINGZZ" style="html=1;shadow=0;dashed=0;align=center;verticalAlign=middle;shape=mxgraph.arrows2.twoWayArrow;dy=0.6;dx=35;labelBackgroundColor=none;fillColor=#3399FF;fontColor=#ffffff;strokeColor=#000000;strokeWidth=3;" parent="1" vertex="1">
          <mxGeometry x="300" y="190" width="160" height="60" as="geometry" />
        </mxCell>
        <mxCell id="OqCfDwqVX9urTB39xYmR-8" value="" style="verticalLabelPosition=bottom;verticalAlign=top;html=1;shape=mxgraph.basic.smiley;labelBackgroundColor=none;strokeWidth=3;" parent="1" vertex="1">
          <mxGeometry x="230" y="70" width="60" height="60" as="geometry" />
        </mxCell>
        <mxCell id="OqCfDwqVX9urTB39xYmR-9" value="" style="verticalLabelPosition=bottom;verticalAlign=top;html=1;shape=mxgraph.basic.smiley;labelBackgroundColor=none;strokeWidth=3;" parent="1" vertex="1">
          <mxGeometry x="485" y="190" width="30" height="30" as="geometry" />
        </mxCell>
        <mxCell id="OqCfDwqVX9urTB39xYmR-12" value="" style="dashed=0;outlineConnect=0;html=1;align=center;labelPosition=center;verticalLabelPosition=bottom;verticalAlign=top;shape=mxgraph.weblogos.feed;fillColor=#000000;direction=east;" parent="1" vertex="1">
          <mxGeometry x="120" y="20" width="60.400000000000006" height="59.2" as="geometry" />
        </mxCell>
        <mxCell id="OqCfDwqVX9urTB39xYmR-18" value="" style="verticalLabelPosition=bottom;verticalAlign=top;html=1;shape=mxgraph.basic.sun;fillColor=#FFFF00;" parent="1" vertex="1">
          <mxGeometry x="570" y="-130" width="150" height="130" as="geometry" />
        </mxCell>
        <mxCell id="OqCfDwqVX9urTB39xYmR-19" value="" style="verticalLabelPosition=bottom;verticalAlign=top;html=1;shape=mxgraph.basic.flash;direction=south;rotation=-140;fillColor=#FFFF00;" parent="1" vertex="1">
          <mxGeometry x="70" y="-70" width="172.32" height="40.25" as="geometry" />
        </mxCell>
        <mxCell id="OqCfDwqVX9urTB39xYmR-21" value="" style="verticalLabelPosition=bottom;verticalAlign=top;html=1;shape=mxgraph.basic.flash;rotation=-45;fillColor=#FFFF00;" parent="1" vertex="1">
          <mxGeometry x="180.15" y="-190" width="43.79" height="195" as="geometry" />
        </mxCell>
        <mxCell id="OqCfDwqVX9urTB39xYmR-27" value="" style="verticalLabelPosition=bottom;verticalAlign=top;html=1;shape=mxgraph.basic.drop;fillColor=#1ba1e2;fontColor=#ffffff;strokeColor=#006EAF;" parent="1" vertex="1">
          <mxGeometry x="390" y="-150" width="30" height="60" as="geometry" />
        </mxCell>
        <mxCell id="OqCfDwqVX9urTB39xYmR-28" value="" style="verticalLabelPosition=bottom;verticalAlign=top;html=1;shape=mxgraph.basic.drop;fillColor=#1ba1e2;fontColor=#ffffff;strokeColor=#006EAF;" parent="1" vertex="1">
          <mxGeometry x="440" y="-122.5" width="25" height="60" as="geometry" />
        </mxCell>
        <mxCell id="OqCfDwqVX9urTB39xYmR-29" value="" style="verticalLabelPosition=bottom;verticalAlign=top;html=1;shape=mxgraph.basic.drop;fillColor=#1ba1e2;fontColor=#ffffff;strokeColor=#006EAF;" parent="1" vertex="1">
          <mxGeometry x="420" y="-200" width="30" height="60" as="geometry" />
        </mxCell>
        <mxCell id="OqCfDwqVX9urTB39xYmR-30" value="" style="verticalLabelPosition=bottom;verticalAlign=top;html=1;shape=mxgraph.basic.drop;fillColor=#1ba1e2;fontColor=#ffffff;strokeColor=#006EAF;" parent="1" vertex="1">
          <mxGeometry x="350" y="-240" width="40" height="80" as="geometry" />
        </mxCell>
        <mxCell id="XgQcoexERc5tF3yefuiR-3" value="Min hemsida&amp;nbsp;" style="rounded=0;whiteSpace=wrap;html=1;fontSize=40;strokeWidth=5;" parent="1" vertex="1">
          <mxGeometry x="547" y="-480" width="280" height="100" as="geometry" />
        </mxCell>
        <mxCell id="XgQcoexERc5tF3yefuiR-4" value="GRÄNDEN" style="rounded=0;whiteSpace=wrap;html=1;fontSize=30;strokeWidth=5;" parent="1" vertex="1">
          <mxGeometry x="547" y="-340" width="280" height="120" as="geometry" />
        </mxCell>
        <mxCell id="XgQcoexERc5tF3yefuiR-5" value="Hej Gabriel vart kan man festa?" style="whiteSpace=wrap;html=1;shape=mxgraph.basic.roundRectCallout;dx=30;dy=15;size=5;boundedLbl=1;strokeWidth=5;fillColor=#3399FF;" parent="1" vertex="1">
          <mxGeometry x="290" y="20" width="140" height="70" as="geometry" />
        </mxCell>
        <mxCell id="XgQcoexERc5tF3yefuiR-6" value="Gabriel" style="html=1;shadow=0;dashed=0;align=center;verticalAlign=middle;shape=mxgraph.arrows2.arrow;dy=0.6;dx=40;flipH=1;notch=0;strokeWidth=4;fillColor=#3399FF;" parent="1" vertex="1">
          <mxGeometry x="540" y="207" width="120" height="70" as="geometry" />
        </mxCell>
        <mxCell id="XgQcoexERc5tF3yefuiR-7" value="Jag har hört att gränden är helt galet!!" style="whiteSpace=wrap;html=1;shape=mxgraph.basic.roundRectCallout;dx=30;dy=15;size=5;boundedLbl=1;strokeWidth=4;fillColor=#3399FF;" parent="1" vertex="1">
          <mxGeometry x="520" y="130" width="160" height="62" as="geometry" />
        </mxCell>
      </root>
    </mxGraphModel>
  </diagram>
</mxfile>
